<?xml version="1.0" standalone="no"?><!DOCTYPE svg PUBLIC "-//W3C//DTD SVG 1.1//EN" "http://www.w3.org/Graphics/SVG/1.1/DTD/svg11.dtd"><svg class="icon" width="200px" height="200.00px" viewBox="0 0 1024 1024" version="1.1" xmlns="http://www.w3.org/2000/svg"><path d="M731.0848 143.7696A247.1424 247.1424 0 0 0 405.8112 271.36l-3.7376 8.5504-8.5504-3.4304a247.0912 247.0912 0 0 0-325.2736 128 247.0912 247.0912 0 0 0 128 325.2224l368.0256 160.4608a102.4 102.4 0 0 0 134.4-52.7872v-0.256l160.3584-367.7696a247.0912 247.0912 0 0 0-127.9488-325.5808z" fill="#F85F69" /><path d="M586.9568 433.8688a142.6432 142.6432 0 0 1 187.8016 73.7792l2.1504 5.12 5.12-2.2016a142.6944 142.6944 0 0 1 187.7504 73.7792A142.6944 142.6944 0 0 1 896 771.9936l-212.48 92.6208a58.9312 58.9312 0 0 1-77.568-30.72l-92.5184-212.3264a142.6944 142.6944 0 0 1 73.5232-187.6992z" fill="#F85F69" /><path d="M781.8752 510.4128l-5.12 2.2016-2.1504-5.12a142.6432 142.6432 0 1 0-261.5296 114.0224l92.5184 212.3264a58.8288 58.8288 0 0 0 73.1648 32.1536 101.9392 101.9392 0 0 0 19.4048-29.184v-0.256l147.4048-337.92a142.4896 142.4896 0 0 0-63.6928 11.776z" fill="#F33B3D" /><path d="M418.4576 715.1616a40.3968 40.3968 0 0 1-16.384-3.4304l-153.6-67.328A40.96 40.96 0 1 1 281.6 569.344l153.6 67.328a40.96 40.96 0 0 1-16.4864 78.4896z" fill="#FFFFFF" /></svg>