<?xml version="1.0" standalone="no"?><!DOCTYPE svg PUBLIC "-//W3C//DTD SVG 1.1//EN" "http://www.w3.org/Graphics/SVG/1.1/DTD/svg11.dtd"><svg class="icon" width="200px" height="200.00px" viewBox="0 0 1024 1024" version="1.1" xmlns="http://www.w3.org/2000/svg"><path d="M542.432 288l366.816 366.832-350.416 350.416L192 638.432V288h350.432z m60.704 176h-56.016l-140.96 270.576H462.4L603.136 464z m-17.888 156.16c-6.72 0-12.96 1.28-18.768 3.824-5.808 2.544-10.896 6.016-15.296 10.4-4.384 4.384-7.84 9.488-10.336 15.296a46.56 46.56 0 0 0-3.744 18.624c0 6.608 1.248 12.8 3.744 18.608 2.512 5.808 5.952 10.88 10.336 15.232 4.4 4.336 9.488 7.76 15.296 10.256 5.808 2.512 12.064 3.76 18.768 3.76 6.592 0 12.8-1.248 18.608-3.76a48.368 48.368 0 0 0 25.488-25.488 46.56 46.56 0 0 0 3.76-18.608c0-6.608-1.264-12.816-3.76-18.624a48.752 48.752 0 0 0-25.488-25.696 45.808 45.808 0 0 0-18.608-3.84z m-156.128-137.12c-6.608 0-12.816 1.264-18.624 3.76a48.368 48.368 0 0 0-25.488 25.488 46.56 46.56 0 0 0-3.76 18.624c0 6.688 1.264 12.96 3.76 18.752 2.496 5.808 5.92 10.912 10.272 15.296 4.32 4.384 9.408 7.84 15.2 10.336 5.824 2.496 12.032 3.744 18.64 3.744a47.04 47.04 0 0 0 18.688-3.744 48.4 48.4 0 0 0 25.696-25.632c2.496-5.808 3.744-12.064 3.744-18.752 0-6.608-1.248-12.816-3.744-18.624a47.776 47.776 0 0 0-10.336-15.216 48.992 48.992 0 0 0-15.36-10.272 47.04 47.04 0 0 0-18.688-3.76z" fill="#3264FF" /><path d="M736 192c123.712 0 224 100.288 224 224 0 78.624-40.512 147.792-101.808 187.76L548.224 293.824A223.808 223.808 0 0 1 736 192z" fill="#FFB400" /></svg>