<?xml version="1.0" standalone="no"?><!DOCTYPE svg PUBLIC "-//W3C//DTD SVG 1.1//EN" "http://www.w3.org/Graphics/SVG/1.1/DTD/svg11.dtd"><svg t="1765189301337" class="icon" viewBox="0 0 1024 1024" version="1.1" xmlns="http://www.w3.org/2000/svg" p-id="2906" xmlns:xlink="http://www.w3.org/1999/xlink" width="200" height="200"><path d="M653.835878 1023.601933c-152.459821 0-335.172766-140.915866-454.592992-350.640529C44.39466 401.138224 47.806667 117.600489 206.863034 27.409785c34.347532-19.505303 73.926806-28.433387 116.861221-26.499917 3.184539-0.511801 6.425945-0.796135 9.781085-0.909868h1.990337C405.498676 0 469.473796 87.347365 484.372891 203.24185c9.667352 75.575943-4.606209 143.872938-38.271339 182.712945-17.856167 20.642639-40.318543 31.845393-65.39679 32.470928-0.056867 0-2.843339 0.739268-3.753207 1.876604-1.307936 1.59227-2.843339 7.165214-0.796135 18.424835a900.883434 900.883434 0 0 0 122.661632 211.8856c4.378742 4.947409 7.335814 4.947409 8.757483 4.947409a30.651191 30.651191 0 0 0 14.501027-5.345477c16.775698-22.860443 44.526684-35.314267 78.817349-35.314266 46.118954 0 101.109124 22.291775 150.810685 61.131782 91.214306 71.310935 128.632643 167.188316 95.308713 227.75143-2.957072 5.402344-3.241406 6.027878-6.255345 11.259621-22.007442 33.608263-48.109291 62.837785-81.546954 81.831288-31.276726 17.742433-66.761593 26.727384-105.374132 26.727384z m-52.8861-351.15233c-11.316488 0-26.158716 2.274671-32.982729 13.079358a28.774588 28.774588 0 0 1-5.629811 6.539679c-2.502138 2.160937-25.362581 21.040706-54.762703 21.040706-18.595435 0-35.484867-7.278947-49.246626-21.097573a29.456989 29.456989 0 0 1-4.151275-4.378741A962.242683 962.242683 0 0 1 321.33585 457.663797a29.456989 29.456989 0 0 1-1.478536-4.890542c-5.914144-28.490254-1.876604-51.635031 12.055756-68.695063 18.254234-22.405509 45.436552-23.201644 47.93869-23.201644 2.900205-0.113734 11.828289-0.284334 22.348643-12.453824 22.405509-25.874382 32.129727-80.011551 24.68018-137.901927-11.202754-87.574832-57.435442-152.971622-91.896707-152.971622a24.737047 24.737047 0 0 0-3.980674 0.568668 30.13939 30.13939 0 0 1-7.222081 0.454934c-32.755262-1.93347-62.667185 4.435608-88.086633 18.766036C109.052183 149.218415 115.534995 408.985839 249.683715 644.698617c107.819404 189.252624 273.984117 321.411007 404.152163 321.411007 28.433387 0 54.194036-6.425945 76.599544-19.164103 24.737047-14.046093 47.654357-37.987005 62.951519-64.259454 1.307936-2.274671 2.957072-5.004276 5.28861-9.383018 15.354029-28.660854-14.671628-98.72072-82.85489-152.004887-39.067474-30.537458-82.058755-48.791692-114.870883-48.791692z m91.441773-193.9157a29.002055 29.002055 0 0 1-28.774588-34.290664 42.934414 42.934414 0 0 0-34.688732-49.929028 29.002055 29.002055 0 1 1 10.463486-57.151108 101.165991 101.165991 0 0 1 81.717554 117.543622 29.229522 29.229522 0 0 1-28.71772 23.884045z m98.834453-2.047203a29.058922 29.058922 0 0 1-28.831455-34.290665 119.533959 119.533959 0 0 0-96.502915-138.925529 29.002055 29.002055 0 1 1 10.57722-57.151108c96.900983 17.6287 161.274171 110.321542 143.474871 206.540123a29.172655 29.172655 0 0 1-28.717721 23.827179z m113.278614 31.674793a29.058922 29.058922 0 0 1-28.831455-34.290665 243.730994 243.730994 0 0 0-39.863608-184.532682 246.858666 246.858666 0 0 0-159.625035-102.41706 29.058922 29.058922 0 1 1 10.57722-57.151108 304.976509 304.976509 0 0 1 197.157106 126.585439 300.938968 300.938968 0 0 1 49.303493 228.035764 29.229522 29.229522 0 0 1-28.717721 23.770312z" fill="#07AD56" p-id="2907"></path></svg>