<?xml version="1.0" standalone="no"?><!DOCTYPE svg PUBLIC "-//W3C//DTD SVG 1.1//EN" "http://www.w3.org/Graphics/SVG/1.1/DTD/svg11.dtd"><svg class="icon" width="200px" height="200.00px" viewBox="0 0 1024 1024" version="1.1" xmlns="http://www.w3.org/2000/svg"><path d="M519.303852 815.109843l-52.587732 87.64622c4.382311 0 54.048502 27.754636 58.430813 32.136947 4.382311 4.382311 46.74465 10.225392 75.960057 10.225392 62.813124 2.921541 108.097004-24.833096 148.998573-77.420827 39.440799-52.587732 39.440799-77.420827 35.058488-135.851641-1.46077-5.843081 0-13.146933 4.382311-17.529244l-11.686162-48.20542c106.636234-108.097004 188.439372-273.164051 154.841654-420.701855-204.507846-52.587732-315.526391 52.587732-422.162624 159.223966l-17.529244 16.068473c-4.382311 4.382311-10.225392 5.843081-16.068474 4.382311-49.666191-20.450785-134.39087-20.450785-182.596291 8.764622-55.509272 33.597718-122.704708 150.459344-96.410842 200.125535L367.383738 803.42368c27.754636 42.36234 151.920114 11.686163 151.920114 11.686163z" fill="#FFDBDB" /><path d="M587.960057 977.25535c-43.82311 0-87.64622-11.686163-125.626248-37.980029l-5.843081-4.382311c-4.382311-4.382311-16.068474-16.068474-16.068474-33.597718 0-7.303852 0-21.911555 13.146933-36.519258 2.921541-2.921541 7.303852-7.303852 10.225392-11.686162-23.372325 2.921541-46.74465 7.303852-64.273894 7.303851H395.138374l-4.382311-1.46077c-11.686163-4.382311-21.911555-7.303852-29.215407-14.607703L181.865906 666.11127c-8.764622-10.225392-13.146933-24.833096-13.146933-36.519259 0-17.529244 1.46077-35.058488 2.921541-52.587731l-2.921541 2.92154c-8.764622 8.764622-24.833096 13.146933-36.519258 13.146933-16.068474 0-27.754636-10.225392-32.136948-14.607703l-4.382311-5.843081c-61.352354-90.56776-48.205421-213.272468 29.215407-290.693296 59.891583-59.891583 146.077033-81.803138 224.958631-59.891583C501.774608 71.577746 725.272468 11.686163 931.241084 67.195435h1.46077C950.231098 73.038516 963.378031 87.64622 964.838802 103.714693c51.126961 208.890157-8.764622 429.466476-156.302425 578.46505 24.833096 81.803138 2.921541 167.988588-56.970043 227.880171-43.82311 43.82311-103.714693 67.195435-163.606277 67.195436z m-83.263909-80.342369c65.734665 36.519258 151.920114 24.833096 205.968617-29.215406 48.205421-48.205421 62.813124-118.322397 37.980028-184.057061l-7.303851-17.529244 23.372325-23.372326c132.9301-132.9301 188.439372-333.055635 144.616262-521.495007-185.517832-46.74465-384.182596 8.764622-520.034237 144.616263L365.922967 289.232525l-17.529244-7.303852c-62.813124-23.372325-132.9301-7.303852-181.13552 39.440799-55.509272 55.509272-67.195435 140.233951-29.215407 205.968616 18.990014-16.068474 40.901569-29.215407 67.195435-36.519258l52.587732-17.529244-14.607703 52.587732c-8.764622 33.597718-14.607703 67.195435-14.607704 99.332382l172.370899 173.831669c1.46077 0 2.921541 1.46077 4.382311 1.460771 23.372325-1.46077 59.891583-7.303852 86.185449-11.686163 7.303852-1.46077 13.146933-2.921541 18.990015-2.92154l42.362339-7.303852-8.764622 40.901569c-5.843081 27.754636-20.450785 55.509272-39.440799 77.420827z m-277.546362-267.32097z m-99.332382-90.56776z" fill="#FD6D6F" /><path d="M573.352354 455.760342c-5.843081-5.843081-13.146933-13.146933-20.450785-26.293866-33.597718-54.048502-33.597718-122.704708 1.460771-175.292439 24.833096-37.980029 67.195435-64.273894 113.940085-70.116976 59.891583-7.303852 116.861626 20.450785 147.537803 70.116976 33.597718 54.048502 33.597718 122.704708 0 176.75321-24.833096 37.980029-67.195435 64.273894-113.940085 70.116976h-14.607704c-42.36234 0-84.724679-16.068474-113.940085-45.283881m42.362339-40.901569c18.990014 18.990014 48.205421 29.215407 78.881598 27.754636 29.215407-4.382311 56.970043-21.911555 71.577746-43.823109 21.911555-35.058488 21.911555-78.881598 0-113.940086-18.990014-32.136947-54.048502-48.205421-90.56776-43.82311-29.215407 4.382311-56.970043 21.911555-71.577746 43.82311-21.911555 35.058488-21.911555 78.881598 0 113.940086l1.46077 2.92154c2.921541 5.843081 5.843081 7.303852 10.225392 13.146933M225.689016 967.029957c-7.303852 0-14.607703-2.921541-20.450785-8.764622-11.686163-11.686163-11.686163-29.215407 0-40.901569l59.891584-59.891583c11.686163-11.686163 29.215407-11.686163 40.901569 0 11.686163 11.686163 11.686163 29.215407 0 40.901569l-59.891584 59.891583c-5.843081 5.843081-13.146933 8.764622-20.450784 8.764622zM98.601997 931.971469c-7.303852 0-14.607703-2.921541-20.450784-8.764622-11.686163-11.686163-11.686163-29.215407 0-40.901569l106.636234-106.636234c11.686163-11.686163 29.215407-11.686163 40.901569 0s11.686163 29.215407 0 40.901569l-106.636234 106.636234c-5.843081 5.843081-13.146933 8.764622-20.450785 8.764622zM70.847361 812.188302c-7.303852 0-14.607703-2.921541-20.450785-8.764622-11.686163-11.686163-11.686163-29.215407 0-40.901569l64.273895-64.273894c11.686163-11.686163 29.215407-11.686163 40.901569 0 11.686163 11.686163 11.686163 29.215407 0 40.901569L91.298146 803.42368c-5.843081 5.843081-13.146933 8.764622-20.450785 8.764622z" fill="#FF6C6C" /></svg>