<?xml version="1.0" standalone="no"?><!DOCTYPE svg PUBLIC "-//W3C//DTD SVG 1.1//EN" "http://www.w3.org/Graphics/SVG/1.1/DTD/svg11.dtd"><svg class="icon" width="200px" height="199.80px" viewBox="0 0 1025 1024" version="1.1" xmlns="http://www.w3.org/2000/svg"><path d="M536.87229 865.920198a178.687777 178.687777 0 0 1-23.48797-39.615951 220.415724 220.415724 0 0 1-11.903986-37.119953 293.439633 293.439633 0 0 1-7.93599-49.087939 200.575749 200.575749 0 0 1 2.495997-51.199936 251.263686 251.263686 0 0 1 15.99998-53.503933 255.99968 255.99968 0 0 1 34.303957-57.599928 62.079922 62.079922 0 0 0 9.983988-17.855978c1.919998-5.759993 3.775995-11.583986 5.567993-17.343978a144.575819 144.575819 0 0 1 6.015992-16.38398 37.503953 37.503953 0 0 1 12.799984-14.847981 59.775925 59.775925 0 0 0 12.799984-17.343979 200.38375 200.38375 0 0 0 9.983988-22.335972c2.879996-9.535988 5.567993-19.199976 8.06399-28.735964a47.039941 47.039941 0 0 0 16.575979-9.727988 58.879926 58.879926 0 0 0 12.799984-17.215978 81.471898 81.471898 0 0 0 7.93599-29.823963 78.911901 78.911901 0 0 0 0-24.831969 41.087949 41.087949 0 0 0-5.695993-15.74398 44.351945 44.351945 0 0 0-9.983987-11.967985A428.287465 428.287465 0 0 0 629.160175 262.400952a501.695373 501.695373 0 0 0-15.423981-65.471918 188.799764 188.799764 0 0 0-33.407958-63.551921 144.703819 144.703819 0 0 0-25.983968-25.599968 205.567743 205.567743 0 0 0-36.479954-22.015972 225.791718 225.791718 0 0 0-44.287945-15.80798A204.799744 204.799744 0 0 0 423.720432 64.0012a278.335652 278.335652 0 0 0-41.791948 3.455996 195.839755 195.839755 0 0 0-43.967945 12.799984 179.199776 179.199776 0 0 0-42.623947 24.511969 203.007746 203.007746 0 0 0-38.399952 40.639949 171.071786 171.071786 0 0 0-27.391966 58.559927 551.359311 551.359311 0 0 0-12.799984 61.567923A587.263266 587.263266 0 0 0 213.352695 332.800864a61.183924 61.183924 0 0 0-11.007987 19.199976 81.023899 81.023899 0 0 0-5.567993 21.759973 62.143922 62.143922 0 0 0 3.519996 27.775965 75.455906 75.455906 0 0 0 11.007986 23.80797 59.071926 59.071926 0 0 0 11.007986 11.967985 45.503943 45.503943 0 0 0 12.799984 5.951993 162.879796 162.879796 0 0 0 7.935991 28.735964 216.767729 216.767729 0 0 0 9.983987 22.847971 49.407938 49.407938 0 0 0 13.887983 17.855978c9.087989 7.80799 17.855978 15.67998 26.367967 23.80797a50.175937 50.175937 0 0 1 14.399982 32.703959c0.639999 9.343988 1.023999 17.855978 1.023998 25.599968a66.495917 66.495917 0 0 1-3.967995 22.847972 62.591922 62.591922 0 0 1-13.887982 21.375973 152.31981 152.31981 0 0 1-28.863964 22.335972 202.751747 202.751747 0 0 1-55.295931 23.359971c-20.351975 5.375993-40.447949 11.583986-60.287925 18.367977a162.367797 162.367797 0 0 0-50.303937 27.327966 76.799904 76.799904 0 0 0-26.367967 50.111937 364.799544 364.799544 0 0 0-3.071996 94.719882 81.535898 81.535898 0 0 0 13.887983 44.095945 80.1919 80.1919 0 0 0 25.599968 8.895989c13.567983 3.263996 30.271962 6.399992 49.791937 9.471988 21.439973 3.263996 43.135946 6.015992 64.767919 8.447989a2741.116574 2741.116574 0 0 0 142.463822 11.967985c22.975971 1.279998 43.007946 1.919998 60.287925 1.919998a1440.638199 1440.638199 0 0 0 156.479804-8.06399c21.247973-2.623997 39.87195-5.631993 55.871931-8.895989a322.239597 322.239597 0 0 1-59.775926-37.247953 255.61568 255.61568 0 0 1-39.231951-39.93595z m0 0" fill="#DD5C51" /><path d="M944.103781 644.864474a208.38374 208.38374 0 0 0-43.455945-66.495917 201.151749 201.151749 0 0 0-64.831919-44.479944 199.93575 199.93575 0 0 0-158.527802 0 211.839735 211.839735 0 0 0-65.407919 44.479944 207.67974 207.67974 0 0 0-43.967945 66.495917 213.311733 213.311733 0 0 0 43.967945 229.887713 203.647745 203.647745 0 0 0 65.407919 44.799944 199.87175 199.87175 0 0 0 158.527802 0 201.151749 201.151749 0 0 0 64.831919-44.799944 217.599728 217.599728 0 0 0 43.455945-67.071917 214.847731 214.847731 0 0 0 0-162.815796z m-58.879926 124.927844H633.19217v-70.847912h252.031685z m0 0" fill="#DD5C51" /></svg>