<?xml version="1.0" standalone="no"?><!DOCTYPE svg PUBLIC "-//W3C//DTD SVG 1.1//EN" "http://www.w3.org/Graphics/SVG/1.1/DTD/svg11.dtd"><svg class="icon" width="200px" height="200.00px" viewBox="0 0 1024 1024" version="1.1" xmlns="http://www.w3.org/2000/svg"><path d="M372.053333 829.44H259.413333c-27.306667 0-51.2-23.893333-51.2-51.2v-34.133333h61.44c10.24 0 17.066667-6.826667 17.066667-17.066667s-6.826667-17.066667-17.066667-17.066667H208.213333v-477.866666c0-27.306667 23.893333-51.2 51.2-51.2h341.333334c27.306667 0 51.2 23.893333 51.2 51.2v290.133333c0 10.24 6.826667 17.066667 17.066666 17.066667s17.066667-6.826667 17.066667-17.066667V228.693333c0-47.786667-37.546667-85.333333-85.333333-85.333333h-341.333334c-47.786667 0-85.333333 37.546667-85.333333 85.333333v546.133334c0 47.786667 37.546667 85.333333 85.333333 85.333333h112.64c10.24 0 17.066667-6.826667 17.066667-17.066667s-6.826667-13.653333-17.066667-13.653333z" fill="#06C1AE" /><path d="M532.48 283.306667c0-10.24-6.826667-17.066667-17.066667-17.066667h-170.666666c-10.24 0-17.066667 6.826667-17.066667 17.066667s6.826667 17.066667 17.066667 17.066666h170.666666c10.24 0 17.066667-10.24 17.066667-17.066666zM426.666667 512v-116.053333c0-10.24-6.826667-17.066667-13.653334-17.066667-10.24 0-17.066667 6.826667-17.066666 17.066667v44.373333H331.093333v-44.373333c0-10.24-6.826667-17.066667-13.653333-17.066667-10.24 0-13.653333 6.826667-13.653333 17.066667V512c0 10.24 3.413333 13.653333 13.653333 13.653333 10.24 0 13.653333-3.413333 13.653333-13.653333v-44.373333h64.853334V512c0 10.24 6.826667 13.653333 17.066666 13.653333 6.826667 0 10.24-3.413333 13.653334-13.653333zM460.8 525.653333h34.133333c44.373333-3.413333 68.266667-27.306667 71.68-71.68-3.413333-47.786667-27.306667-71.68-71.68-75.093333h-34.133333c-10.24 0-13.653333 6.826667-13.653333 13.653333v116.053334c-3.413333 10.24 0 17.066667 13.653333 17.066666z m13.653333-119.466666h17.066667c27.306667 0 40.96 17.066667 40.96 44.373333s-13.653333 44.373333-37.546667 44.373333h-20.48v-88.746666zM747.52 675.84c-10.24-58.026667-61.44-102.4-119.466667-102.4-44.373333 0-88.746667 27.306667-105.813333 68.266667-64.853333 3.413333-112.64 54.613333-112.64 119.466666s54.613333 119.466667 119.466667 119.466667H750.933333c58.026667 0 102.4-44.373333 102.4-102.4s-47.786667-102.4-105.813333-102.4z m0 170.666667h-221.866667c-47.786667 0-85.333333-37.546667-85.333333-85.333334s37.546667-85.333333 85.333333-85.333333h17.066667l3.413333-10.24c13.653333-34.133333 44.373333-54.613333 78.506667-54.613333 23.893333 0 44.373333 6.826667 61.44 23.893333 17.066667 17.066667 23.893333 37.546667 23.893333 61.44v17.066667h34.133334c37.546667 0 68.266667 30.72 68.266666 68.266666s-27.306667 64.853333-64.853333 64.853334z" fill="#06C1AE" /></svg>