<?xml version="1.0" standalone="no"?><!DOCTYPE svg PUBLIC "-//W3C//DTD SVG 1.1//EN" "http://www.w3.org/Graphics/SVG/1.1/DTD/svg11.dtd"><svg class="icon" width="200px" height="200.00px" viewBox="0 0 1024 1024" version="1.1" xmlns="http://www.w3.org/2000/svg"><path d="M723.8 807.1H301c-46.7 0-84.6-37.9-84.6-84.6V299.6c0-46.7 37.9-84.6 84.6-84.6h422.9c46.7 0 84.6 37.9 84.6 84.6v422.9c-0.1 46.7-38 84.6-84.7 84.6z" fill="#F6B533" opacity=".3" /><path d="M452.6 869.9l-299-299c-33-33-33-86.6 0-119.6l299-299c33-33 86.6-33 119.6 0l299 299c33 33 33 86.6 0 119.6l-299 299c-33 33-86.6 33-119.6 0z" fill="#F6B533" opacity=".3" /><path d="M389.8 215.1L216.4 388.5v245.2l173.4 173.4H635l173.4-173.4V388.5L635 215.1z" fill="#F6B533" /><path d="M512.4 328.1L359 382.2v189.5l0.9 1.1c0.3 1.3-1.4 33.8 35.7 61.5 35.4 27.1 74.8 48.6 116.8 63.7 0 0 48.5-13.8 116.8-63.7 36.9-27.7 36.4-61.4 36.6-62.6V382.2l-153.4-54.1z m135.4 243.6c-9.2 37.7-42.7 61.4-135.9 108.6-90-39-127.7-72.9-134.8-108.6V391.3l135.3-45.1 135.3 45.1v180.4zM442.6 600h21.1v-8.3h107.2v8.3h20.8v-58H442.6v58z m21.1-43.4h107.2v20.8H463.7v-20.8z m51.2-130.9l4.6 9.1h-47.3l9.3-18.4-21.8-2.4c-9 21.5-22.2 41-38.8 57.4l3.8 12.5 2.4 9.2c3-3.1 6-6.1 8.7-9.2s5.3-5.9 7.6-8.5V535h20.3v-6.2h140.6v-14.6h-66v-13.4h57.5v-12.3h-57.5v-13.1h57.5V462h-57.5v-13.1H601v-14.1h-58.2c-1.4-3.4-3.2-7-5.1-10.8-2-3.7-4.2-7.3-6.4-10.7l-21 3.2 4.6 9.2z m3 88.4h-54.2v-13.4h54.2v13.4z m0-25.7h-54.2v-13.1h54.2v13.1z m0-26.4h-54.2v-13.1h54.2V462z" fill="#FFFFFF" /></svg>