<?xml version="1.0" standalone="no"?><!DOCTYPE svg PUBLIC "-//W3C//DTD SVG 1.1//EN" "http://www.w3.org/Graphics/SVG/1.1/DTD/svg11.dtd"><svg t="1765189682127" class="icon" viewBox="0 0 1024 1024" version="1.1" xmlns="http://www.w3.org/2000/svg" p-id="13063" xmlns:xlink="http://www.w3.org/1999/xlink" width="200" height="200"><path d="M926.09 803.92c0 82.4-126.18 89.3-255.42 89.3s-255.42-6.91-255.42-89.3c0-63.62 83.63-159.12 193.26-187.07-55-28.64-83.31-91.15-68.57-151.37 14.74-60.23 68.72-102.59 130.73-102.58 74.18 0 134.62 60.38 134.62 134.61-0.04 50.17-27.96 96.16-72.45 119.34 109.62 27.94 193.25 123.46 193.25 187.07zM456.65 497.19c0 60.47-88.62 65.58-179.37 65.58-90.76 0-179.36-5.11-179.36-65.58 0-44.19 52.83-107.43 125.61-129.76-35.32-23.67-51.01-67.65-38.65-108.33 12.37-40.68 49.88-68.48 92.4-68.48s80.03 27.81 92.4 68.48c12.36 40.68-3.32 84.66-38.65 108.33 72.79 22.33 125.62 85.57 125.62 129.76z m267.32-167.95c-11.03 0-20.99-6.56-25.36-16.69-7.94-18.48-39.58-81.17-112.78-111.3-75.66-31.15-143.87-6.73-163.08 1.55-13.9 5.63-29.75-0.87-35.7-14.64-5.94-13.77 0.19-29.76 13.82-36.02 24.17-10.43 110.24-41.29 206-1.92a262.108 262.108 0 0 1 104.8 78.58l9.51-43.45c3.27-14.88 17.98-24.3 32.86-21.04 14.88 3.26 24.3 17.98 21.04 32.86l-24.15 110.35c-2.56 11.7-12.39 20.41-24.31 21.56-0.9 0.11-1.79 0.16-2.65 0.16z" p-id="13064" fill="#f59e0b"></path></svg>