<?xml version="1.0" standalone="no"?><!DOCTYPE svg PUBLIC "-//W3C//DTD SVG 1.1//EN" "http://www.w3.org/Graphics/SVG/1.1/DTD/svg11.dtd"><svg class="icon" width="200px" height="187.55px" viewBox="0 0 1092 1024" version="1.1" xmlns="http://www.w3.org/2000/svg"><path d="M1024 512C1024 794.168889 794.168889 1024 512 1024S0 794.168889 0 512 229.831111 0 512 0 1024 229.831111 1024 512" fill="#FEE987" /><path d="M439.182222 334.506667c0 54.613333-31.857778 100.124444-72.817778 100.124444-40.96 0-72.817778-43.235556-72.817777-100.124444s31.857778-100.124444 72.817777-100.124445c40.96 0 72.817778 45.511111 72.817778 100.124445M730.453333 334.506667c0 54.613333-31.857778 100.124444-72.817777 100.124444-40.96 0-72.817778-43.235556-72.817778-100.124444s31.857778-100.124444 72.817778-100.124445c40.96 0 72.817778 45.511111 72.817777 100.124445" fill="#3B2B05" /><path d="M389.12 293.546667c0 13.653333-11.377778 22.755556-22.755556 22.755555-13.653333 0-22.755556-11.377778-22.755555-22.755555 0-13.653333 11.377778-22.755556 22.755555-22.755556s22.755556 9.102222 22.755556 22.755556M680.391111 293.546667c0 13.653333-11.377778 22.755556-22.755555 22.755555-13.653333 0-22.755556-11.377778-22.755556-22.755555 0-13.653333 11.377778-22.755556 22.755556-22.755556 13.653333 0 22.755556 9.102222 22.755555 22.755556" fill="#FFFFFF" /><path d="M1077.202489 748.202667c-11.377778-34.133333-52.337778-81.92-104.675556-77.368889-45.511111 2.275556-70.542222 43.235556-77.368889 56.888889-6.826667-11.377778-31.857778-52.337778-77.368888-56.888889-50.062222-4.551111-91.022222 43.235556-104.675556 77.368889-27.306667 72.817778 43.235556 184.32 179.768889 273.066666v2.275556h4.551111v-2.275556c136.533333-88.746667 207.075556-200.248889 179.768889-273.066666" fill="#E73E37" /><path d="M512 639.431111v81.92c-22.755556 0-50.062222-4.551111-75.093333-22.755555-18.204444-13.653333-45.511111-43.235556-36.408889-65.991112 4.551111-9.102222 13.653333-18.204444 25.031111-20.48 11.377778 0 15.928889 6.826667 31.857778 13.653334 20.48 11.377778 38.684444 11.377778 50.062222 13.653333h4.551111M512 639.431111v81.92c22.755556 0 50.062222-4.551111 75.093333-22.755555 18.204444-13.653333 45.511111-43.235556 36.408889-65.991112-4.551111-9.102222-13.653333-18.204444-25.031111-20.48-11.377778 0-15.928889 6.826667-31.857778 13.653334-20.48 11.377778-38.684444 11.377778-50.062222 13.653333h-4.551111" fill="#3B2B05" /></svg>