<?xml version="1.0" standalone="no"?><!DOCTYPE svg PUBLIC "-//W3C//DTD SVG 1.1//EN" "http://www.w3.org/Graphics/SVG/1.1/DTD/svg11.dtd"><svg class="icon" width="200px" height="200.00px" viewBox="0 0 1024 1024" version="1.1" xmlns="http://www.w3.org/2000/svg"><path d="M821.32 399.37c0-12-10.11-22.04-23.4-23.46-27.62-2.83-69.74-9.57-113.3-25.82-47.48-17.66-84.09-37.48-101.6-47.72-8.76-5.12-20.08-5.12-28.84 0-17.59 10.25-54.12 30-101.6 47.72-43.55 16.24-85.67 22.99-113.45 25.82-13.36 1.35-23.4 11.46-23.4 23.46v242.24c0 23.32 9.51 48.67 28.23 75.29 16.23 23.06 39.17 46.51 66.42 67.88 54.42 42.73 116.54 70.3 158.14 70.3 36.53 0 99.11-22.31 156.7-72.05 29.44-23.66 51.33-45.36 67.03-66.32 19.4-25.95 29.29-51.23 29.29-75.09l-0.22-242.25zM709.83 768.13l-0.3 0.27c-52.76 45.7-110.13 66.46-141.07 66.46-35.85 0-93.45-26.22-143.19-65.24-54.5-42.74-87.03-90.59-87.03-127.93V399.37c0-1.69 1.43-3.17 3.32-3.37 29.14-2.97 73.59-10.11 119.56-27.23 46.65-17.39 82.96-36.46 105.23-49.41 0.6-0.34 1.36-0.54 2.04-0.54 0.68 0 1.43 0.2 2.04 0.54 22.34 12.94 58.72 32.02 105.37 49.41 46.04 17.19 90.35 24.33 119.48 27.3 1.89 0.2 3.32 1.62 3.32 3.37l0.15 242.31c0.08 36.87-29.06 78.26-88.92 126.38z m0 0" fill="#66CC99" /><path d="M568.54 858.11c-42.35 0-105.18-27.86-160.07-70.97-27.46-21.52-50.64-45.23-67.03-68.53-19.1-27.15-28.78-53.05-28.78-77V399.38c0-13.59 11.26-24.97 26.18-26.47 27.6-2.82 69.56-9.57 112.67-25.63 47.52-17.75 83.75-37.38 101.11-47.5 9.72-5.68 22.28-5.68 32 0 17.28 10.12 53.4 29.74 101.12 47.5 43.03 16.05 84.94 22.8 112.51 25.63 14.93 1.59 26.17 12.96 26.17 26.47l0.22 242.24c0 24.5-10.06 50.37-29.88 76.87-15.92 21.26-38.02 43.14-67.56 66.88-58.15 50.22-121.61 72.74-158.66 72.74z m0.07-556.55c-4.47 0-8.94 1.15-12.84 3.42-17.54 10.23-54.12 30.05-102.08 47.95-43.72 16.31-86.25 23.15-114.23 26.01-11.76 1.17-20.63 9.96-20.63 20.44v242.24c0 22.7 9.31 47.45 27.69 73.57 16.05 22.81 38.81 46.07 65.81 67.22 53.87 42.3 115.18 69.64 156.21 69.64 35.89 0 97.63-22.05 154.65-71.3 29.22-23.49 50.98-45 66.58-65.84 19.04-25.46 28.69-50.12 28.69-73.3l-0.22-242.24c0-10.41-8.87-19.19-20.64-20.44-27.93-2.88-70.4-9.72-114.06-26.01-48.16-17.91-84.63-37.73-102.09-47.95-3.91-2.26-8.38-3.41-12.84-3.41z m-0.15 536.33c-36.55 0-94.88-26.49-145.13-65.9-55.22-43.31-88.19-92.02-88.19-130.31v-242.3c0-3.27 2.61-6.01 6.08-6.39 28.96-2.94 73.07-10.02 118.79-27.04 46.39-17.3 82.57-36.3 104.75-49.18 2.24-1.26 5.01-1.22 7.16-0.04 22.34 12.93 58.62 31.93 104.96 49.22 45.72 17.07 89.79 24.16 118.7 27.11 3.48 0.38 6.1 3.13 6.1 6.39l0.15 242.31c0.07 37.82-29.36 79.91-89.98 128.66l-0.24 0.21c-53.34 46.22-111.59 67.26-143.15 67.26z" fill="#66CC99" /><path d="M859.32 263.19c0-16.81-13.89-30.88-32.13-32.86-37.93-3.97-95.77-13.41-155.58-36.17-65.2-24.74-115.47-52.5-139.51-66.85-12.02-7.17-27.57-7.17-39.6 0-24.15 14.35-74.32 42.02-139.51 66.85-59.81 22.76-117.65 32.2-155.79 36.17-18.35 1.89-32.13 16.05-32.13 32.86v339.35c0 32.67 13.06 68.18 38.77 105.47 22.28 32.3 53.79 65.16 91.21 95.09 74.73 59.86 160.04 98.48 217.15 98.48 50.17 0 136.09-31.25 215.18-100.94 40.42-33.14 70.48-63.55 92.04-92.91 26.64-36.35 40.22-71.76 40.22-105.19l-0.32-339.35zM706.23 779.77l-0.42 0.38c-72.45 64.02-151.23 93.1-193.72 93.1-49.23 0-128.32-36.73-196.63-91.4-74.83-59.87-119.51-126.9-119.51-179.21V263.19c0-2.36 1.97-4.44 4.56-4.72 40.01-4.15 101.06-14.16 164.18-38.15 64.06-24.36 113.92-51.08 144.5-69.21 0.82-0.47 1.86-0.75 2.8-0.75 0.93 0 1.97 0.28 2.8 0.75 30.68 18.13 80.64 44.85 144.7 69.21 63.22 24.08 124.07 34.09 164.08 38.24 2.59 0.28 4.57 2.26 4.57 4.72l0.21 339.45c0.08 51.65-39.92 109.62-122.12 177.04z m0 0" fill="#4D4D4D" /><path d="M512.2 905.82c-58.15 0-144.43-39.03-219.81-99.41-37.71-30.15-69.54-63.36-92.05-96-26.23-38.03-39.52-74.32-39.52-107.87V263.19c0-19.04 15.46-34.98 35.95-37.09 37.91-3.95 95.53-13.4 154.71-35.91 65.26-24.86 115.01-52.36 138.85-66.54 13.35-7.96 30.59-7.96 43.94 0 23.73 14.18 73.33 41.66 138.86 66.54 59.1 22.49 116.64 31.94 154.5 35.91 20.5 2.22 35.94 18.16 35.94 37.09l0.31 339.34c0 34.32-13.81 70.56-41.03 107.69-21.86 29.79-52.21 60.44-92.77 93.69-79.86 70.37-166.99 101.91-217.88 101.91z m0.1-779.66c-6.14 0-12.27 1.61-17.63 4.79-24.08 14.33-74.31 42.09-140.17 67.17-60.04 22.86-118.44 32.43-156.86 36.44-16.15 1.64-28.33 13.95-28.33 28.63v339.34c0 31.79 12.79 66.48 38.02 103.06 22.04 31.96 53.29 64.54 90.37 94.17 73.97 59.26 158.17 97.56 214.5 97.56 49.28 0 134.07-30.88 212.36-99.88 40.13-32.91 70-63.04 91.43-92.23 26.14-35.66 39.39-70.21 39.39-102.68l-0.31-339.34c0-14.58-12.18-26.89-28.35-28.63-38.35-4.03-96.68-13.62-156.63-36.44-66.13-25.09-116.22-52.86-140.19-67.17-5.33-3.18-11.47-4.79-17.6-4.79z m-0.21 751.33c-50.2 0-130.29-37.1-199.29-92.32-75.83-60.67-121.1-128.9-121.1-182.54V263.19c0-4.58 3.59-8.43 8.35-8.96 39.77-4.11 100.34-14.03 163.13-37.88 63.71-24.23 113.39-50.85 143.84-68.9 3.08-1.76 6.87-1.71 9.84-0.05 30.68 18.11 80.49 44.73 144.13 68.95 62.79 23.92 123.3 33.85 163 37.98 4.79 0.53 8.38 4.38 8.38 8.96l0.21 339.44c0.1 52.97-40.31 111.94-123.56 180.24l-0.32 0.3c-73.28 64.75-153.27 94.22-196.61 94.22z m-2.9-726.39l2.16 3.65c-30.74 18.23-80.88 45.08-145.15 69.53-63.64 24.18-124.99 34.23-165.25 38.41l-0.75 339.94c0 51.07 44.08 116.83 117.92 175.91C385.72 832.64 463.68 869 512.1 869c41.79 0 119.36-28.79 190.91-92.03l0.53-0.48c81.22-66.61 120.65-123.45 120.55-173.75l-0.21-339.44c-40.98-4.69-102.27-14.76-165.91-39.01-64.2-24.41-114.47-51.28-145.34-69.53l-3.44-3.66z" fill="#4D4D4D" /><path d="M660.68 429.96l-176.4 160.69-83.01-75.53c-5.73-5.22-14.95-5.13-20.58 0-5.73 5.22-5.63 13.62 0 18.75l93.3 84.9c2.82 2.56 6.6 3.89 10.29 3.89 3.69 0 7.48-1.33 10.29-3.89L681.26 448.7c5.73-5.22 5.73-13.62 0-18.75-5.73-5.12-14.95-5.12-20.58 0.01z m0 0" fill="#4D4D4D" /><path d="M484.28 625.36c-4.48 0-8.88-1.68-12.09-4.58l-93.31-84.91c-3.31-3.03-5.13-7.07-5.13-11.39 0-4.3 1.83-8.33 5.13-11.35 6.68-6.05 17.54-6.05 24.2 0l81.2 73.89 174.59-159.06c6.63-6.02 17.47-6.02 24.18 0 3.33 2.97 5.17 6.98 5.19 11.28 0.03 4.32-1.82 8.4-5.17 11.46L496.38 620.78c-3.22 2.91-7.62 4.58-12.1 4.58z m-93.3-111.44c-3.07 0-6.15 1.07-8.48 3.2-2.18 1.98-3.38 4.6-3.38 7.36 0 2.78 1.21 5.42 3.38 7.4l93.3 84.91c4.46 4.06 12.49 4.06 16.97 0l186.68-170.08c2.22-2.01 3.43-4.65 3.42-7.45-0.01-2.76-1.22-5.35-3.4-7.31-4.72-4.23-12.34-4.25-16.98 0L484.28 594.3l-84.82-77.18c-2.34-2.13-5.41-3.2-8.48-3.2z" fill="#4D4D4D" /><path d="M484.28 626.65c-4.79 0-9.52-1.8-12.96-4.94l-93.3-84.9c-3.58-3.26-5.56-7.64-5.56-12.32 0-4.68 1.98-9.04 5.56-12.3 7.16-6.52 18.78-6.52 25.94 0l80.32 73.09L658 427.03c7.09-6.46 18.71-6.48 25.91-0.03 3.6 3.23 5.6 7.58 5.62 12.24 0.02 4.69-1.97 9.1-5.59 12.41l-186.7 170.06c-3.43 3.14-8.16 4.94-12.96 4.94z m-93.3-111.45c-2.76 0-5.51 0.95-7.61 2.86-1.91 1.74-2.97 4.02-2.97 6.43s1.06 4.71 2.97 6.45l93.3 84.9c3.99 3.64 11.22 3.64 15.22 0l186.7-170.06c1.94-1.77 3.01-4.09 3-6.51-0.02-2.39-1.06-4.64-2.97-6.34-4.17-3.74-11.15-3.74-15.25-0.03L484.28 596.03l-85.68-77.97c-2.1-1.91-4.86-2.86-7.62-2.86z" fill="#4D4D4D" /><path d="M484.28 629.34c-5.46 0-10.85-2.06-14.77-5.63l-93.3-84.89c-4.15-3.81-6.44-8.89-6.44-14.33 0-5.44 2.28-10.51 6.44-14.29 8.15-7.42 21.41-7.42 29.56 0l78.51 71.44L656.2 425.03c8.09-7.33 21.33-7.36 29.51-0.02 4.18 3.73 6.5 8.78 6.52 14.22 0.03 5.48-2.27 10.58-6.46 14.41L499.06 623.7c-3.93 3.57-9.32 5.64-14.78 5.64z m-93.3-119.37c-4.04 0-8.08 1.4-11.16 4.22-3.03 2.75-4.69 6.4-4.69 10.3 0 3.9 1.67 7.59 4.69 10.36l93.3 84.87c5.89 5.39 16.42 5.39 22.31 0l186.7-170.06c3.05-2.78 4.72-6.47 4.71-10.39-0.02-3.92-1.7-7.56-4.72-10.25-6.21-5.56-16.21-5.56-22.31 0l-175.54 159.9-82.14-74.73c-3.07-2.82-7.11-4.22-11.15-4.22z m93.3 111.28c-3.45 0-6.91-1.15-9.42-3.43l-93.3-84.89c-2.48-2.27-3.84-5.27-3.84-8.45 0-3.18 1.36-6.17 3.85-8.41 5.01-4.6 13.83-4.58 18.84 0.02l83.87 76.3L661.55 430.9c5.17-4.65 13.63-4.69 18.85 0.03 2.47 2.19 3.85 5.14 3.87 8.31 0.02 3.2-1.36 6.23-3.87 8.52L493.7 617.83c-2.51 2.27-5.97 3.42-9.42 3.42z m-93.3-103.36c-2.21 0-4.27 0.77-5.79 2.15-1.36 1.22-2.1 2.8-2.1 4.44s0.74 3.24 2.09 4.48l93.3 84.87c2.96 2.73 8.62 2.69 11.6 0.02l186.7-170.08c1.37-1.24 2.13-2.85 2.13-4.5-0.02-1.63-0.75-3.17-2.07-4.34-3.16-2.83-8.59-2.85-11.66-0.05l-180.9 164.79-87.5-79.61c-1.52-1.42-3.58-2.17-5.8-2.17z" fill="#4D4D4D" /></svg>