<?xml version="1.0" standalone="no"?><!DOCTYPE svg PUBLIC "-//W3C//DTD SVG 1.1//EN" "http://www.w3.org/Graphics/SVG/1.1/DTD/svg11.dtd"><svg class="icon" width="200px" height="200.00px" viewBox="0 0 1024 1024" version="1.1" xmlns="http://www.w3.org/2000/svg"><path d="M779.4 485.4c-98.1 0-178.1 77.7-179.6 173.8l-84.7 71.4-91.7-77.4c-4.5-93.3-83.2-167.9-179.4-167.9-99 0-179.6 79.1-179.6 176.4v227.7c0 12.3 9.9 22.1 22.1 22.1h314.9c12.3 0 22.1-9.9 22.1-22.1v-178l77.1 65.1c4.1 3.4 9.2 5.2 14.3 5.2 5.1 0 10.2-1.8 14.3-5.2l70.4-59.4v172.4c0 12.3 10 22.1 22.1 22.1h314.9c12.3 0 22.1-9.9 22.1-22.1V661.8c0.2-97.2-80.3-176.4-179.3-176.4z m135.3 382" fill="#377DFF" /><path d="M644 674.7V663c1.1 3.8 1.1 7.9 0 11.7z m0 0" fill="#377DFF" /><path d="M244 112.4c-100.1 0-181.5 81.5-181.5 181.5S144 475.4 244 475.4c100.1 0 181.6-81.5 181.6-181.5S344.1 112.4 244 112.4z m0 314.8" fill="#377DFF" /><path d="M779.4 475.5c-100.1 0-181.6-81.5-181.6-181.6s81.5-181.6 181.6-181.6S961 193.8 961 293.9c-0.1 100.1-81.6 181.6-181.6 181.6z m0-314.9" fill="#377DFF" /></svg>