<?xml version="1.0" standalone="no"?><!DOCTYPE svg PUBLIC "-//W3C//DTD SVG 1.1//EN" "http://www.w3.org/Graphics/SVG/1.1/DTD/svg11.dtd"><svg t="1764687585543" class="icon" viewBox="0 0 1024 1024" version="1.1" xmlns="http://www.w3.org/2000/svg" p-id="80614" xmlns:xlink="http://www.w3.org/1999/xlink" width="200" height="200"><path d="M673.12 172.98l107.51 8.25c32.2 2.47 57.84 27.96 60.5 60.14l8.9 107.46a65.82 65.82 0 0 0 15.61 37.38l70.19 81.86c21.02 24.51 21.13 60.66 0.26 85.31l-69.69 82.28a65.793 65.793 0 0 0-15.39 37.47l-8.25 107.51c-2.47 32.2-27.96 57.84-60.14 60.5l-107.46 8.9a65.82 65.82 0 0 0-37.38 15.61l-81.86 70.19c-24.51 21.02-60.66 21.13-85.31 0.26l-82.28-69.69a65.793 65.793 0 0 0-37.47-15.39l-107.51-8.25c-32.2-2.47-57.84-27.96-60.5-60.14l-8.9-107.46a65.82 65.82 0 0 0-15.61-37.38l-70.19-81.86c-21.02-24.51-21.13-60.66-0.26-85.31l69.69-82.28a65.793 65.793 0 0 0 15.39-37.47l8.25-107.51c2.47-32.2 27.96-57.84 60.14-60.5l107.46-8.9a65.82 65.82 0 0 0 37.38-15.61l81.86-70.19c24.51-21.02 60.66-21.13 85.31-0.26l82.28 69.69a65.78 65.78 0 0 0 37.47 15.39z" fill="#4FAEC9" p-id="80615"></path><path d="M513.16 960c-17.02 0-33.97-5.91-47.84-17.6l-82.26-69.68c-9.25-7.9-20.61-12.52-32.82-13.49l-107.5-8.22c-36.48-2.89-65.05-31.34-68.07-67.75l-8.93-107.37c-0.96-12.01-5.84-23.63-13.61-32.75l-70.19-81.88c-23.76-27.74-23.89-68.14-0.32-95.94l69.68-82.33c7.9-9.18 12.52-20.55 13.49-32.75l8.22-107.5c2.83-36.48 31.34-65.05 67.75-68.07l107.37-8.93c12.01-0.96 23.63-5.84 32.75-13.61l81.88-70.19c27.68-23.76 68.01-23.95 95.94-0.32l82.33 69.68c9.25 7.9 20.55 12.52 32.75 13.49l107.5 8.22c36.48 2.83 65.05 31.34 68.07 67.75l8.93 107.37c0.96 12.14 5.72 23.44 13.61 32.75l70.19 81.88c23.76 27.74 23.89 68.07 0.32 95.94l-69.68 82.26c-7.9 9.31-12.52 20.68-13.49 32.82l-8.22 107.5c-2.89 36.48-31.34 65.05-67.75 68.07l-107.37 8.93c-12.01 0.96-23.63 5.84-32.75 13.61l-81.88 70.19c-13.94 11.95-31.02 17.92-48.1 17.92z m-2.25-879.54c-13.29 0-26.65 4.69-37.5 13.94l-81.88 70.19c-11.82 10.21-26.39 16.25-42 17.6l-107.44 8.93c-28.32 2.31-50.48 24.53-52.66 52.92l-8.22 107.5c-1.28 15.73-7.26 30.31-17.4 42.13L94.2 476c-18.37 21.64-18.3 52.98 0.19 74.62l70.19 81.88c10.21 11.82 16.25 26.39 17.6 42l8.93 107.44c2.31 28.32 24.53 50.48 52.92 52.66l107.5 8.22c15.67 1.28 30.25 7.26 42.19 17.34l82.26 69.68c21.64 18.3 52.98 18.3 74.62-0.19l81.88-70.19c11.82-10.21 26.39-16.25 42-17.6l107.44-8.93c28.32-2.31 50.48-24.53 52.66-52.92l8.22-107.5c1.28-15.61 7.26-30.18 17.34-42.13l69.68-82.33c18.37-21.64 18.24-53.04-0.19-74.62l-70.19-81.88c-10.21-11.88-16.25-26.46-17.6-42L832.9 242.1c-2.31-28.32-24.53-50.48-52.92-52.66l-107.5-8.22c-15.61-1.28-30.18-7.26-42.13-17.34L548.03 94.2a57.004 57.004 0 0 0-37.12-13.74z" fill="#353535" p-id="80616"></path><path d="M473.47 639.1c-6.29 0-12.59-2.38-17.4-7.19l-127.8-127.73c-9.63-9.63-9.7-25.24-0.06-34.87 9.63-9.63 25.24-9.7 34.87-0.06l110.39 110.33 187.39-187.46c9.63-9.63 25.3-9.63 34.94 0 9.57 9.63 9.57 25.3 0 34.94L490.94 631.91c-4.82 4.81-11.18 7.19-17.47 7.19z" fill="#F3F7D2" p-id="80617"></path></svg>