<?xml version="1.0" standalone="no"?><!DOCTYPE svg PUBLIC "-//W3C//DTD SVG 1.1//EN" "http://www.w3.org/Graphics/SVG/1.1/DTD/svg11.dtd"><svg class="icon" width="200px" height="185.17px" viewBox="0 0 1106 1024" version="1.1" xmlns="http://www.w3.org/2000/svg"><path d="M1105.02735 358.464655v-7.6299a29.999379 29.999379 0 0 0-6.416052-21.329038 29.479158 29.479158 0 0 0-52.022043 16.473647V346.846398c-17.340681 231.844908-140.806332 381.494987-380.107733 457.447171A29.305751 29.305751 0 0 0 646.713146 832.385473v162.308776a29.305751 29.305751 0 0 0 58.611502 0v-141.153145l10.404409-3.81495c238.954587-85.489558 369.87673-250.74625 389.298293-491.261499z"  /><path d="M577.350421 600.193751L685.903085 502.912529c138.72545-127.454007 213.984006-215.891481 213.984007-318.721721A183.811221 183.811221 0 0 0 712.607734 0.032774a202.36575 202.36575 0 0 0-153.811842 70.576572l-6.589459 7.6299-6.589459-7.6299A202.712563 202.712563 0 0 0 391.805132 0.032774a183.811221 183.811221 0 0 0-187.279357 183.984628c0 102.83024 75.258557 190.747493 213.984006 318.72172l108.552664 97.454629a38.496312 38.496312 0 0 0 50.287976 0zM324.696696 323.609885l-11.098036-14.392765c-5.202204-6.936272-10.057595-13.872545-14.392766-20.462004l-2.080882-3.294729c-3.121323-4.855391-6.069238-9.710781-8.843747-14.739579a173.406812 173.406812 0 0 1-25.143988-86.703406 124.332684 124.332684 0 0 1 128.667855-125.373126 146.35535 146.35535 0 0 1 109.419698 50.114569 69.362725 69.362725 0 0 0 52.022044 23.40992 67.281843 67.281843 0 0 0 50.461382-23.40992l1.213848-1.213848a145.835129 145.835129 0 0 1 108.205851-48.900721 124.332684 124.332684 0 0 1 128.667855 125.373126 173.406812 173.406812 0 0 1-25.143988 86.703406c-2.774509 5.028798-5.722425 9.884188-8.843748 14.739579l-7.803306 11.618256c-2.774509 4.161763-5.722425 8.15012-8.670341 12.138477l-2.601102 3.468136c-2.774509 3.641543-5.549018 7.283086-8.496934 10.751223l-76.298997 82.368235-55.836994 52.022044-94.333306 84.969338-8.15012-5.202204z" fill="#FBB03B" /><path d="M429.781224 1022.092525a29.305751 29.305751 0 0 0 29.305751-29.305751v-161.615149a29.479158 29.479158 0 0 0-20.288597-27.918497c-239.474808-75.952184-364.154306-225.428856-380.281139-457.620577l8.67034-1.560662-8.67034 0.867034a29.305751 29.305751 0 0 0-29.132345-26.531242h-2.080881A29.305751 29.305751 0 0 0 0.079143 349.794314v7.6299C20.194333 597.939462 151.116476 763.022748 390.071064 848.685713l10.404408 3.641543v140.459518a29.652565 29.652565 0 0 0 29.305752 29.305751z"  /></svg>